<svg id="Layer_2" data-name="Layer 2" xmlns="http://www.w3.org/2000/svg" viewBox="0 0 124.82 139.17"><defs><style>.cls-1{fill:#58725a;}.cls-2{fill:#384239;}</style></defs><title>logo</title><path class="cls-1" d="M71.63,3.86c.85-.38,1.59-.75,2.36-1.06a9.45,9.45,0,0,1,12.49,5A34.37,34.37,0,0,1,88,13.67c.6,2.58.93,5.25,1.76,7.74C91.07,25.21,91,28.68,88.54,32A16.84,16.84,0,0,0,87,34.71a6.33,6.33,0,0,0-.32,4.85c2,5.8.25,10.54-4.21,14.46-2.23,2-4.24,4.07-5.15,7A6.84,6.84,0,0,0,77,63.41c.46,8.11-2.59,14.78-8.25,20.41-.7.69-1.18.54-1.56-.4a4.12,4.12,0,0,1-4.15,2,2.45,2.45,0,0,1-2.54-2.2c-.33-1.36-1.65-2.55-2.69-3.66a10.94,10.94,0,0,0-2.47-1.67c-4.09-2.38-5.9-6.15-6.44-10.65a45.1,45.1,0,0,0-.45-5.12,13.05,13.05,0,0,0-2-4.45,30.62,30.62,0,0,1-3.9-7.09,21.26,21.26,0,0,0-2.74-5.24,15.56,15.56,0,0,1-3.08-12.66,22.06,22.06,0,0,0-1.48-13.49,10,10,0,0,1,.09-8.68c1.62-3.58,8.51-5.72,12.63-3.45a24.52,24.52,0,0,1,4.58,3.25c2,1.84,3.08,1.47,4.67-.71A19,19,0,0,0,58.84,6c.31-.71.54-1.45.85-2.16A6.2,6.2,0,0,1,70,2C70.57,2.57,71.08,3.23,71.63,3.86Zm4.83,53.76c2-2,3.86-4,5.81-5.93,2.88-2.85,4.16-6.3,2.83-10.14a10.65,10.65,0,0,1,1.57-10.5c2.13-2.87,2.28-5.8,1.12-9.1a67.38,67.38,0,0,1-1.69-7.24,53.68,53.68,0,0,0-1.42-6,7,7,0,0,0-5.52-4.54A7.92,7.92,0,0,0,72,6.42c-1.52,1.37-3,2.85-5,3.5A4.4,4.4,0,0,0,63.59,15a6.4,6.4,0,0,1-3.47,6.35c-3.57,2-4.56,5.23-4,8.92a37.22,37.22,0,0,1,.25,11.87c-.49,3,.61,5.45,3.53,7.21,3.19,1.92,5.34,4.75,4.92,8.93-.12,1.11.56,2.29.85,3.45.34,1.37,1,2.77.91,4.11a21.1,21.1,0,0,0,.62,6.72c.53,2.08.72,4.23,1.07,6.35.09.5.2,1,.3,1.47h.48c1.39-3,2.76-6.13,2.88-9.55s0-6.86,0-10.29a2.4,2.4,0,0,0-.6-1.63,17.81,17.81,0,0,1-3.73-5.45c-1.71-3.25-3.57-6.39-6.85-8.37-.23-.14-.53-.36-.57-.58a4.05,4.05,0,0,1-.06-2c.12-.28,1-.34,1.61-.31a3.32,3.32,0,0,1,1.2.52c2.9,1.49,4.69,4,6.16,6.76.68,1.32,1.57,2.54,2.36,3.8a4,4,0,0,0,.23-1.62,65.41,65.41,0,0,1,.5-8.42c.66-3.67.59-4.34-2.6-6.4a7.1,7.1,0,0,1-1.13-.69,26.07,26.07,0,0,1-3.73-3.93,41.65,41.65,0,0,1-2.87-6,3.17,3.17,0,0,1-.22-1.77,2.22,2.22,0,0,1,.9-1.4c.23-.13,1,.36,1.29.76a23.29,23.29,0,0,1,1.79,3.34c1.67,3.89,4.73,6.37,8.51,8.67.15-2.16.43-4,.39-5.88-.08-3.33,1.11-6.3,2.32-9.27a3.68,3.68,0,0,1,1.09-1.44c.83-.65,1.65-.28,1.75.78a13.29,13.29,0,0,1,0,2.82c-.81,6-1.52,12-2.54,17.92A62.34,62.34,0,0,0,76.46,57.62ZM70.38,5.35C69,3.07,67.37,1.87,65,2c-2.18.12-3.13,1.63-3.82,3.43-.47,1.24-.95,2.48-1.46,3.7a8,8,0,0,1-4.5,4.42,21,21,0,0,0-3.09,1.59,5.84,5.84,0,0,0-3,6q.29,2.22.75,4.41a16.41,16.41,0,0,1,0,7.57,9.5,9.5,0,0,0,.95,7.67A8.15,8.15,0,0,1,51.59,48a40.55,40.55,0,0,1-2.05,4.51c-.75,1.47-1.37,2.94-.69,4.59a26.53,26.53,0,0,1,1.69,9.25A11,11,0,0,0,54,74.55c2.07,1.84,4.45,3.32,6.77,5a6.36,6.36,0,0,0,.13-1c-.11-3.09-.21-6.19-.41-9.28a3.56,3.56,0,0,0-.71-1.81c-3-3.86-6-7.68-9-11.52a3.69,3.69,0,0,1-.75-1.44,1,1,0,0,1,1.44-1.17,3,3,0,0,1,1.1.72c1.95,2.1,3.89,4.21,5.79,6.35.61.67,1.11,1.44,1.88,2.48a7.57,7.57,0,0,0,.2-1.65c-.45-3.17-.92-6.34-1.44-9.5a1.45,1.45,0,0,0-.71-.84c-3.44-1.88-4.55-5-4.05-8.58a36.73,36.73,0,0,0-.25-12.2,5.43,5.43,0,0,1,0-1c0-3.86,1.07-7.19,4.75-9.23a5,5,0,0,0,2.92-4.35c0-.72.18-1.44.14-2.15a4.2,4.2,0,0,1,2-3.93c.86-.59,1.85-1,2.74-1.54C67.82,7.13,69,6.28,70.38,5.35ZM52.24,12.4c-.94-.75-1.8-1.44-2.68-2.11a9,9,0,0,0-10.7-.78,5.69,5.69,0,0,0-2.45,5.1,1.9,1.9,0,0,0,2.45,1.74c.33-.05.65-.13,1-.17,3.07-.43,5,.95,5.6,4a26.61,26.61,0,0,1,.19,3.47,28.26,28.26,0,0,0,.24,5,11.45,11.45,0,0,1-1.68,9.64,3.75,3.75,0,0,0-.09,4.38c.37.61.79,1.2,1.15,1.82.76,1.34,1.52,2.68,2.25,4,.33.62.59,1.27,1,2.26,1.71-3.2,2.49-6.1.68-9.07a11.25,11.25,0,0,1-1.14-9A15.35,15.35,0,0,0,48,25.67a37.15,37.15,0,0,1-.75-5.24,6.91,6.91,0,0,1,2.64-6C50.67,13.8,51.4,13.14,52.24,12.4ZM46.31,54.93l.64-.07c.07-1.08.49-2.3.15-3.22a19.11,19.11,0,0,0-2.85-5.4c-2.88-3.49-3.51-6.88-.68-10.67a5.26,5.26,0,0,0,.83-4c-.35-2.52-.52-5.05-.73-7.58-.1-1.21,0-2.45-.2-3.63-.34-1.85-1.54-2.6-3.38-2.35l-2.84.42c.5,1.88,1.13,3.71,1.46,5.59a27.12,27.12,0,0,1-.16,9.59,12,12,0,0,0,2.49,10,18.62,18.62,0,0,1,3.22,6.12C44.83,51.52,45.62,53.21,46.31,54.93Zm16,28.6c2,.55,2.62.29,3.54-1.43,1.53-2.88,1-5.83.13-8.7a15.57,15.57,0,0,1-.92-6.85,4.69,4.69,0,0,0-1-3.72,6.6,6.6,0,0,1-1.39-5.14,5.22,5.22,0,0,0-2.21-4.88c.05.92.3,1.8.39,2.7.28,2.58.52,5.16.69,7.74a1.48,1.48,0,0,1-.63,1.19,1.48,1.48,0,0,1-1.23-.52c-.93-1.1-1.74-2.29-2.61-3.44A19.89,19.89,0,0,0,52,55.19c2.74,3.59,5.14,7.05,7.89,10.23A8.67,8.67,0,0,1,62,71.48C62,75.46,62.23,79.44,62.36,83.53Zm.79-58.67-.46.18c.15.44.27.89.46,1.31.53,1.16,1.11,2.29,1.62,3.46A11.23,11.23,0,0,0,69.5,35.2a31.87,31.87,0,0,1,2.92,2.16,4,4,0,0,1,1.44,4.85,22.1,22.1,0,0,0-.79,8c.07,1.44.18,2.87.2,4.31,0,.78-.12,1.57-.22,2.71a8.07,8.07,0,0,1-.84-.86c-1.62-2.44-3.28-4.85-4.83-7.33a12.68,12.68,0,0,0-5.93-5.49c.13.3.14.44.22.49,3.38,2.11,5.23,5.45,7.14,8.77A27.41,27.41,0,0,0,72,57.47a4.42,4.42,0,0,1,1.37,3.39c-.25,4.87.83,9.8-.67,14.65a1,1,0,0,0,.4-.51c1.61-4.06,2.73-8.18,1.89-12.63-.3-1.63-.33-3.3-.51-4.95a60.41,60.41,0,0,1,.93-18.34c1.08-5.59,1.86-11.25,2.77-16.88A10.31,10.31,0,0,0,78.24,21c-.26.22-.43.3-.48.43-1.1,2.83-2.27,5.64-2.08,8.8a35.35,35.35,0,0,1-.2,4.48,7.58,7.58,0,0,1-.39,2c-.4,1.1-.93,1.21-1.85.5s-1.65-1.3-2.49-1.92a17.56,17.56,0,0,1-6.59-8.33A17.43,17.43,0,0,0,63.15,24.86Z"/><path class="cls-2" d="M18.67,113.4a21.12,21.12,0,0,0,5.07-5.93c1.51-2.51,2.78-4.75,3.79-6.73A22.17,22.17,0,0,0,30,91.54a19.83,19.83,0,0,0-1.89-9.28c-.51-1-.78-1.52-.8-1.59q-.33-1,.54-.72A.4.4,0,0,1,28,80a3.77,3.77,0,0,1,1.52,1.18A8.46,8.46,0,0,1,30.61,83a14.62,14.62,0,0,1,.74,2.26q.3,1.27.45,2.25c.1.65.17,1.3.22,1.95a15.47,15.47,0,0,1-.29,4.72,33.14,33.14,0,0,1-1.59,5q-6.37,15.61-15,17.86a6,6,0,0,1-4.39-1,15.2,15.2,0,0,1-3.82-3.62A11.53,11.53,0,0,1,5,107.49a28.91,28.91,0,0,1-.42-6A52.15,52.15,0,0,1,6.88,88.05a4,4,0,0,0-1.7.83,9.43,9.43,0,0,0-2.89,3.36c-.1.25-.21.55-.34.93s-.26.72-.38,1A5.09,5.09,0,0,1,1.2,95a.77.77,0,0,1-.81.55c-.35-.05-.46-.37-.34-.94A10.92,10.92,0,0,1,4.39,88,8.61,8.61,0,0,1,6.09,87a7.91,7.91,0,0,0,1.52-.84s0-.13.09-.25a1,1,0,0,1,.09-.25,42.12,42.12,0,0,1,2.31-4.41,28.19,28.19,0,0,1,3.65-4.65,12.58,12.58,0,0,1,4.34-2.88,7.14,7.14,0,0,1,1.7-.38,8.23,8.23,0,0,1,1.79,0,4.35,4.35,0,0,1,1.67.56,3.27,3.27,0,0,1,1.21,1.21q1.7,2.72-1.45,6A15.78,15.78,0,0,1,19.18,84a27.2,27.2,0,0,1-4.85,1.85c-.12,0-.54.14-1.26.29a11.43,11.43,0,0,0-1.78.47,1.83,1.83,0,0,0-.94.65Q7.65,95,7.46,99.51c-.07,2.27-.08,4,0,5.07q.38,7,3.77,9.65a5.47,5.47,0,0,0,2.6,1.12,4.43,4.43,0,0,0,2.33-.32,10.73,10.73,0,0,0,2.41-1.56Zm-1.3-30.09a13.42,13.42,0,0,0,3.76-2.39,8.46,8.46,0,0,0,1.67-2,5.42,5.42,0,0,0,.5-1.16,2.84,2.84,0,0,0,.06-1.3,1.49,1.49,0,0,0-.64-1,2.94,2.94,0,0,0-2.89,0,12.8,12.8,0,0,0-3.15,1.89,21.31,21.31,0,0,0-5.6,7.92A46.87,46.87,0,0,0,17.37,83.31Z"/><path class="cls-2" d="M49.2,104.83q2.59-3,4.41-3.15c.43,0,.65.06.65.33s-.16.39-.47.58a13,13,0,0,0-1.74,1.19l-1,.94a24,24,0,0,0-2.69,3.58c-1,1.59-2,3.1-3,4.52a12.52,12.52,0,0,1-2.77,3.08,2.54,2.54,0,0,1-2,.45,2,2,0,0,1-1.5-1.28,3.35,3.35,0,0,1-.13-.44,4.46,4.46,0,0,1-.07-.51,5.76,5.76,0,0,1,0-.59c0-.23,0-.42,0-.58a5.23,5.23,0,0,1,.09-.63c0-.27.08-.47.11-.6s.07-.34.14-.61.12-.47.15-.57l.12-.54a2.63,2.63,0,0,1,.13-.47c.09-.34.2-.68.31-1s.2-.65.29-.9a9.17,9.17,0,0,1,.34-.91c.14-.35.26-.62.34-.83l.4-.92.42-.94a14.55,14.55,0,0,0,.86-2.32c.08-.55-.08-.8-.47-.76a8.17,8.17,0,0,0-1.52.58,19.38,19.38,0,0,1-2.49.93,4.63,4.63,0,0,1-2.21.19q-2.06-.39-3-3.36A4.26,4.26,0,0,1,33,96.82a9.41,9.41,0,0,1,1.16-2.51A8,8,0,0,1,35.22,93a4.48,4.48,0,0,1,1.23-.86A2.07,2.07,0,0,1,37.86,92a3.22,3.22,0,0,1,1.46.85,1.9,1.9,0,0,1,.44,1.79,11.27,11.27,0,0,1-.6,2.37,9.41,9.41,0,0,1-.89,1.85c-1,1.54-1.11,2.32-.43,2.35a5.29,5.29,0,0,0,2.28-.91l.4-.23.38-.22.34-.2.36-.2.33-.14a2.87,2.87,0,0,1,.38-.13l.38-.09a3.21,3.21,0,0,1,.43-.07l.47,0a1.49,1.49,0,0,1,1,.31,1.12,1.12,0,0,1,.4.83,4.42,4.42,0,0,1,0,1,6,6,0,0,1-.27,1c-.1.25-.43,1.09-1,2.54s-1,2.67-1.38,3.68a34.48,34.48,0,0,0-1,3.31,5.92,5.92,0,0,0-.25,2.52q.28,1.15,2.49-1.7l.15-.18q.67-.94,2.51-3.55C47.47,107,48.45,105.72,49.2,104.83Zm-10.85-11c-.27-.31-.62-.27-1.05.13a5.41,5.41,0,0,0-1,1.24,13.12,13.12,0,0,0-.81,1.4A5.59,5.59,0,0,0,35,97.78a4.17,4.17,0,0,0-.11,1.32,8.8,8.8,0,0,0,.31,1.57,1.34,1.34,0,0,0,.29-.07.61.61,0,0,0,.18-.2,1.47,1.47,0,0,1,.18-.24,15.68,15.68,0,0,0,2-3.36C38.57,95.31,38.73,94.31,38.35,93.8Z"/><path class="cls-2" d="M63.41,97.81a1.87,1.87,0,0,1,0,1,7.06,7.06,0,0,1-.45,1.2c-.2.44-.34.76-.42,1q-.31,1-.9,2.61a1.8,1.8,0,0,1-.09.27l-.18.47-.22.6c-.08.24-.17.47-.25.7s-.17.47-.25.71-.16.46-.22.67-.12.39-.16.56-.09.3-.11.39,0,.15,0,.15q.72.18,6.83-5.17l.31-.29a4.15,4.15,0,0,1,.42-.36l.45-.37a4.17,4.17,0,0,1,.52-.36l.49-.21a1.22,1.22,0,0,1,.49-.11.71.71,0,0,1,.4.11.53.53,0,0,1,.25.3.44.44,0,0,1-.09.35,1.31,1.31,0,0,1-.27.3l-.36.31a2.11,2.11,0,0,1-.29.22L69,103a69.22,69.22,0,0,1-8.24,6.4c-.17.12-.41.26-.71.43a3.74,3.74,0,0,1-.56.29,1.31,1.31,0,0,0-.38.47,4.54,4.54,0,0,0-.32.72c-.09.25-.18.53-.29.85s-.18.53-.2.6a38.25,38.25,0,0,1-5.06,9.66q-.87,1.08-1.2,1.44a4.32,4.32,0,0,1-3.5,1.63Q45.48,125.15,46,121a8.72,8.72,0,0,1,1.11-3.1,13.15,13.15,0,0,1,2.2-2.83,24.84,24.84,0,0,1,2.7-2.32,24.43,24.43,0,0,1,2.85-1.81l.71-.34,1.05-.51a4.14,4.14,0,0,0,.52-.27,1.86,1.86,0,0,0,.24-.4,4.63,4.63,0,0,0,.3-.76c.1-.29.22-.61.35-1s.24-.69.32-1,.18-.58.28-.87.15-.47.18-.54c.14-.48.19-.73.14-.76s-.08,0-.18.15a8,8,0,0,0-.81.86,11.45,11.45,0,0,1-.91,1,7.75,7.75,0,0,1-.92.76A3.33,3.33,0,0,1,54,108a2.32,2.32,0,0,1-1.89-1,4.31,4.31,0,0,1-.76-2.28,6.37,6.37,0,0,1,.34-2.48,12.68,12.68,0,0,1,1-2.27,13.49,13.49,0,0,1,1.43-2,4.82,4.82,0,0,1,2.71-1.53,4.38,4.38,0,0,1,3,.49c.43.26.58.55.43.86s-.28.27-.54.15a2.92,2.92,0,0,0-2.64.45,8.48,8.48,0,0,0-2.28,2.23A12.33,12.33,0,0,0,53.79,103a6.13,6.13,0,0,0-.22.62c-.07.24-.14.53-.21.88a5.1,5.1,0,0,0-.13,1,1.78,1.78,0,0,0,.13.78.61.61,0,0,0,.47.41,1.62,1.62,0,0,0,1.19-.3,6.71,6.71,0,0,0,1.37-1.16,16.78,16.78,0,0,0,1.12-1.3q.43-.57.84-1.14l.57-.85.57-.85.52-.8c.19-.29.38-.56.56-.81s.39-.52.62-.8.45-.54.66-.81a2.36,2.36,0,0,1,.42-.33,3,3,0,0,1,.45-.21.48.48,0,0,1,.42,0A.72.72,0,0,1,63.41,97.81Zm-6.84,13.86q-.21-.08-1.14.39c-.61.32-1,.56-1.32.73-.57.36-1.09.7-1.53,1s-.92.67-1.41,1.08a11.47,11.47,0,0,0-1.32,1.27,8.39,8.39,0,0,0-2.39,5.21,3.06,3.06,0,0,0,.22,1.57,1.43,1.43,0,0,0,.87.82,1.86,1.86,0,0,0,1.51-.47,8.22,8.22,0,0,0,1.65-1.74,18.62,18.62,0,0,0,1.3-2c.3-.54.71-1.3,1.21-2.26l.22-.44c.22-.43.42-.85.62-1.26s.47-1.14.92-2.26A8.56,8.56,0,0,0,56.57,111.67Z"/><path class="cls-2" d="M87.21,101.83v0a2.91,2.91,0,0,1-.38.67,5.5,5.5,0,0,1-.64.69c-.26.25-.44.44-.54.56-.53.6-1.07,1.26-1.63,2l-1.9,2.48c-.71.94-1.22,1.63-1.53,2.06a4.49,4.49,0,0,0-.4.51c-.19.26-.34.46-.45.59s-.27.32-.49.57a4.45,4.45,0,0,1-.56.54l-.54.41a1.18,1.18,0,0,1-.58.26,5.61,5.61,0,0,1-.58,0,1.19,1.19,0,0,1-.62-.26,2.66,2.66,0,0,1-.59-.67,5.11,5.11,0,0,1-.73-1.91,8.84,8.84,0,0,1-.12-2,18.34,18.34,0,0,0,0-2.08,13.22,13.22,0,0,0-1.12,1,10.35,10.35,0,0,1-1.47,1.32,4.46,4.46,0,0,1-1.41.71,1.44,1.44,0,0,1-1.37-.29,4,4,0,0,1-1.1-1.77,8.55,8.55,0,0,1,3.94-9.77A3.82,3.82,0,0,1,73.86,97a4,4,0,0,1,1.41.49,7.15,7.15,0,0,1,1.12.81c.41.35.56.65.44.89l-.11.11c-.07.14-.21.18-.42.11a2.32,2.32,0,0,1-.54-.29l-.58-.44a2.7,2.7,0,0,0-.52-.32c-.51-.22-1.1,0-1.78.72a10.25,10.25,0,0,0-3,5.79l0,.32q-.59,5.07,3.76-.11l.21-.29c.63-.77,1.31-1.7,2-2.78a10,10,0,0,0,.61-1c.25-.45.46-.84.66-1.19a11.27,11.27,0,0,1,.68-1.09,4.41,4.41,0,0,1,.76-.85.86.86,0,0,1,.65-.14,1.09,1.09,0,0,1,.69.28q.25.26,0,.84c-.8,1.68-1.26,2.66-1.38,2.93q0,.1-.18.48c-.1.26-.17.46-.22.6-.19.51-.4,1.14-.61,1.9s-.42,1.59-.6,2.48a12.72,12.72,0,0,0-.27,2.51,2.59,2.59,0,0,0,.43,1.68l.15.11a.88.88,0,0,0,.76-.22,5.42,5.42,0,0,0,1-1c.37-.45.7-.87,1-1.28l.93-1.32c.32-.47.52-.76.59-.85,1.06-1.45,1.92-2.54,2.57-3.26.24-.29.63-.7,1.18-1.25a8.67,8.67,0,0,1,1.1-1,.67.67,0,0,1,.67,0A.37.37,0,0,1,87.21,101.83Z"/><path class="cls-2" d="M94.58,113a2,2,0,0,1-1.44.49,1.6,1.6,0,0,1-1.34-.67c-.51-.82-.58-2.34-.22-4.56A80.83,80.83,0,0,1,93.46,100c.08-.34.23-.86.46-1.58s.39-1.24.48-1.6c.32-1.31.2-2-.36-2s-1.09.45-1.75,1.35a17.7,17.7,0,0,0-1.86,3.26c-.58,1.26-1.08,2.42-1.49,3.47s-.71,1.89-.9,2.51a3.74,3.74,0,0,1-.13.47,3.79,3.79,0,0,1-.18.55,3.37,3.37,0,0,0-.18.47,1.83,1.83,0,0,1-.23.5c-.08.1-.18.22-.31.36a1.38,1.38,0,0,1-.42.33,2.63,2.63,0,0,1-.5.18,1.4,1.4,0,0,1-1.63-1.16c-.22-.74.08-2.82.9-6.22,0-.07.08-.3.17-.69s.16-.7.23-1,.16-.56.25-.91a6.28,6.28,0,0,1,.31-.88,1.94,1.94,0,0,1,.34-.55,1,1,0,0,1,1-.32.92.92,0,0,1,.87.61,6.65,6.65,0,0,1-.29,2.1,11.46,11.46,0,0,0-.36,1.81c.26-.41.62-1.06,1.06-1.95s.88-1.69,1.29-2.39A9.44,9.44,0,0,1,91.51,95a5.6,5.6,0,0,1,.9-.78,5.84,5.84,0,0,1,1.11-.58,2.41,2.41,0,0,1,1.21-.16,2,2,0,0,1,1.08.47c.73.72.68,2.86-.14,6.4,0,.24-.22,1-.53,2.24s-.52,2.22-.66,2.9Q93,112.32,94,111.52a4.58,4.58,0,0,0,1-1.3c.19-.39.56-1.09,1.12-2.12s1-1.8,1.3-2.33a16.07,16.07,0,0,1,1.34-1.88,9.7,9.7,0,0,1,1.81-1.77,5.72,5.72,0,0,1,1-.63,2,2,0,0,1,1-.31c.56,0,.39.41-.5,1.16a18,18,0,0,0-1.34,1.24c-.41.42-.75.79-1,1.11a11.35,11.35,0,0,0-.89,1.24l-.71,1.16q-.21.38-.75,1.41c-.37.69-.63,1.2-.8,1.54a5.53,5.53,0,0,0-.42.72l-.48.92a5.69,5.69,0,0,1-.47.69A3.82,3.82,0,0,1,94.58,113Z"/><path class="cls-2" d="M103.7,102.77l-.07.14-1,3.15c-.05.24-.1.52-.16.83a11.79,11.79,0,0,0-.15,1.2,2,2,0,0,0,.15,1.08c.13.24.35.3.67.18a4.59,4.59,0,0,0,1.46-1.32c.64-.76,1.28-1.57,1.92-2.44a24.58,24.58,0,0,1,2.22-2.6,8.08,8.08,0,0,1,2.32-1.78,1.39,1.39,0,0,1,.67-.07c.3,0,.47.1.52.22s0,.18,0,.25a.28.28,0,0,1,0,.2,1.46,1.46,0,0,0-.09.16.53.53,0,0,1-.15.15l-.18.12-.2.13a1.15,1.15,0,0,0-.2.15,16.08,16.08,0,0,0-3.54,3.21c-.27.34-.65.88-1.16,1.61a16.68,16.68,0,0,1-1.23,1.65l-.56.72a5.69,5.69,0,0,1-.67.69,4.11,4.11,0,0,1-.83.62,1.84,1.84,0,0,1-.83.18,1.35,1.35,0,0,1-.87-.33,3.84,3.84,0,0,1-1.17-1.63,5.18,5.18,0,0,1-.33-2.2,14.45,14.45,0,0,1,.22-2.06c.11-.56.27-1.25.49-2.07a21.43,21.43,0,0,1,1.62-4.19,5.7,5.7,0,0,1,.29-.6c.1-.16.22-.33.36-.52a1.07,1.07,0,0,1,.44-.38,4.23,4.23,0,0,1,.54-.18.84.84,0,0,1,.65.09c1,.38,1.07,1.14.33,2.28A13.46,13.46,0,0,0,103.7,102.77Zm2.89-9.87c.58.65.71,1.21.4,1.7s-.66.41-1.19,0a.72.72,0,0,1-.15-.11,3.54,3.54,0,0,1-.29-.4c-.34-.6-.45-1-.34-1.29a.62.62,0,0,1,.68-.34A1.29,1.29,0,0,1,106.59,92.9Z"/><path class="cls-2" d="M117.55,98.14c-.22-.7-.59-.86-1.12-.47a10.65,10.65,0,0,0-1.56,1.59,13.62,13.62,0,0,0-2.2,4.38,7.7,7.7,0,0,0-.29,4.48,3.09,3.09,0,0,0,.2.58.85.85,0,0,0,.81.47,4.25,4.25,0,0,0,2.3-1,24.19,24.19,0,0,0,2.69-2.35c.87-.88,1.83-1.77,2.88-2.66a11.89,11.89,0,0,1,2.65-1.81.89.89,0,0,1,.62,0,.38.38,0,0,1,.29.42,9.38,9.38,0,0,1-1.12,1.08c-.2.15-.48.38-.85.69s-.66.55-.85.72l-1.38,1.29c-.6.56-1,1-1.3,1.24l-.43.37c-.58.53-1,.93-1.39,1.21s-.82.61-1.4,1a5.15,5.15,0,0,1-1.7.78,4,4,0,0,1-1.66.05,2.92,2.92,0,0,1-2-1.21,5.19,5.19,0,0,1-.71-2.51,11.83,11.83,0,0,1,1.88-7q2-3.07,4.09-3.25a2.94,2.94,0,0,1,2.93,1.66,1.76,1.76,0,0,1,0,1.52,1.15,1.15,0,0,1-1.11.79.68.68,0,0,1-.49-.07.25.25,0,0,1,0-.3l.16-.48c.06-.18.12-.37.17-.57A1.11,1.11,0,0,0,117.55,98.14Z"/><path class="cls-2" d="M15,138.17l.53-1.21a4.74,4.74,0,0,0,2.77.92c1.31,0,1.86-.47,1.86-1.09,0-1.81-5-.63-5-3.74,0-1.36,1.07-2.51,3.38-2.51a5.3,5.3,0,0,1,2.79.74l-.49,1.21a4.71,4.71,0,0,0-2.31-.66c-1.3,0-1.83.51-1.83,1.14,0,1.79,5,.63,5,3.71,0,1.34-1.09,2.49-3.4,2.49A5.38,5.38,0,0,1,15,138.17Z"/><path class="cls-2" d="M23.19,135.4v-4.74h1.56v4.68c0,1.72.78,2.47,2.13,2.47s2.13-.75,2.13-2.47v-4.68h1.53v4.74c0,2.44-1.38,3.77-3.67,3.77S23.19,137.84,23.19,135.4Z"/><path class="cls-2" d="M39.76,133.65c0,1.84-1.37,3-3.58,3H34.29v2.42H32.73v-8.39h3.45C38.39,130.66,39.76,131.79,39.76,133.65Zm-1.57,0c0-1.06-.71-1.67-2.08-1.67H34.29v3.33h1.82C37.48,135.31,38.19,134.7,38.19,133.65Z"/><path class="cls-2" d="M47.62,137.75v1.3h-6.3v-8.39h6.13V132H42.88v2.18h4v1.28h-4v2.32Z"/><path class="cls-2" d="M54.85,139.05l-1.71-2.45H50.92v2.44H49.36v-8.39h3.45c2.21,0,3.58,1.13,3.58,3a2.69,2.69,0,0,1-1.79,2.65l1.93,2.75ZM52.74,132H50.92v3.34h1.82c1.37,0,2.08-.62,2.08-1.67S54.11,132,52.74,132Z"/><path class="cls-2" d="M65.84,139.05v-5.56l-2.76,4.6h-.69l-2.76-4.53v5.49H58.13v-8.39h1.29l3.33,5.56L66,130.66h1.29v8.39Z"/><path class="cls-2" d="M75,137.11h-4.2L70,139.05h-1.6l3.77-8.39h1.54l3.79,8.39H75.88Zm-.52-1.22-1.58-3.67-1.57,3.67Z"/><path class="cls-2" d="M84.07,139.05l-1.71-2.45H80.14v2.44H78.58v-8.39H82c2.21,0,3.58,1.13,3.58,3a2.69,2.69,0,0,1-1.79,2.65l1.93,2.75ZM82,132H80.14v3.34H82c1.37,0,2.08-.62,2.08-1.67S83.33,132,82,132Z"/><path class="cls-2" d="M90.24,135.54l-1.33,1.37v2.14H87.35v-8.39h1.56V135l4.15-4.3h1.75l-3.52,3.75L95,139.05H93.21Z"/><path class="cls-2" d="M102.4,137.75v1.3H96.1v-8.39h6.13V132H97.66v2.18h4v1.28h-4v2.32Z"/><path class="cls-2" d="M105.84,132h-2.78v-1.32h7.12V132H107.4v7.07h-1.56Z"/></svg>